<svg xmlns="http://www.w3.org/2000/svg" viewBox="0 0 24 24" width="34" height="34" preserveAspectRatio="xMidYMid meet" style="width: 100%; height: 100%; transform: translate3d(0px, 0px, 0px);"><defs><clipPath id="__lottie_element_83"><rect width="24" height="24" x="0" y="0"></rect></clipPath><clipPath id="__lottie_element_97"><path d="M0,0 L24,0 L24,24 L0,24z"></path></clipPath></defs><g clip-path="url(#__lottie_element_83)"><g clip-path="url(#__lottie_element_97)" transform="matrix(1,0,0,1,0,0)" opacity="1" style="display: block;"><g transform="matrix(0.7091159820556641,-0.7050918340682983,0.7050918340682983,0.7091159820556641,14.811348915100098,14.814605712890625)" opacity="1" style="display: block;"><g opacity="1" transform="matrix(1.3328100442886353,0,0,0.9994699954986572,0,0)"><path fill="rgb(0,0,0)" fill-opacity="1" d=" M-6,-4 C-6,-4 6,-4 6,-4"></path><path stroke-linecap="butt" stroke-linejoin="miter" fill-opacity="0" stroke-miterlimit="4" stroke="rgb(0,0,0)" stroke-opacity="1" stroke-width="2" d=" M-6,-4 C-6,-4 6,-4 6,-4"></path></g></g><g transform="matrix(0,0,0,1,11.968999862670898,16)" opacity="1" style="display: block;"><g opacity="1" transform="matrix(1.3328100442886353,0,0,0.9994699954986572,0,0)"><path fill="rgb(0,0,0)" fill-opacity="1" d=" M-6,-4 C-6,-4 6,-4 6,-4"></path><path stroke-linecap="butt" stroke-linejoin="miter" fill-opacity="0" stroke-miterlimit="4" stroke="rgb(0,0,0)" stroke-opacity="1" stroke-width="2" d=" M-6,-4 C-6,-4 6,-4 6,-4"></path></g></g><g transform="matrix(0.7091159820556641,0.7050918340682983,-0.7050918340682983,0.7091159820556641,9.18104076385498,14.83504581451416)" opacity="1" style="display: block;"><g opacity="1" transform="matrix(1.3328100442886353,0,0,0.9994699954986572,0,0)"><path fill="rgb(0,0,0)" fill-opacity="1" d=" M-6,-4 C-6,-4 6,-4 6,-4"></path><path stroke-linecap="butt" stroke-linejoin="miter" fill-opacity="0" stroke-miterlimit="4" stroke="rgb(0,0,0)" stroke-opacity="1" stroke-width="2" d=" M-6,-4 C-6,-4 6,-4 6,-4"></path></g></g></g></g></svg>